<?xml version="1.0" encoding="utf-8"?>
<!-- Generator: Adobe Illustrator 22.1.0, SVG Export Plug-In . SVG Version: 6.00 Build 0)  -->
<svg version="1.1" id="Capa_1" xmlns="http://www.w3.org/2000/svg" xmlns:xlink="http://www.w3.org/1999/xlink" x="0px" y="0px"
	 viewBox="0 0 473.3 1053" style="enable-background:new 0 0 473.3 1053;" xml:space="preserve">
<style type="text/css">
	.st0{fill:url(#SVGID_1_);}
	.st1{fill:url(#SVGID_2_);}
	.st2{fill:url(#SVGID_3_);}
	.st3{fill:#0C357A;}
	.st4{fill:#F0F5FF;}
	.st5{fill:#D3D8E0;}
	.st6{opacity:0.4;fill:#0C357A;}
	.st7{opacity:0.2;}
	.st8{opacity:0.2;fill:#F0F5FF;}
	.st9{fill:#FFFFFF;}
</style>
<g>
	<linearGradient id="SVGID_1_" gradientUnits="userSpaceOnUse" x1="239.0309" y1="600.9371" x2="239.0309" y2="980.0735">
		<stop  offset="0" style="stop-color:#FF931E"/>
		<stop  offset="7.355678e-02" style="stop-color:#FFA33F;stop-opacity:0.9264"/>
		<stop  offset="0.2018" style="stop-color:#FFBB71;stop-opacity:0.7982"/>
		<stop  offset="0.3328" style="stop-color:#FFD09D;stop-opacity:0.6672"/>
		<stop  offset="0.4642" style="stop-color:#FFE1C0;stop-opacity:0.5358"/>
		<stop  offset="0.5961" style="stop-color:#FFEEDC;stop-opacity:0.4039"/>
		<stop  offset="0.7287" style="stop-color:#FFF7EF;stop-opacity:0.2713"/>
		<stop  offset="0.8627" style="stop-color:#FFFDFB;stop-opacity:0.1373"/>
		<stop  offset="1" style="stop-color:#FFFFFF;stop-opacity:0"/>
	</linearGradient>
	<ellipse class="st0" cx="239" cy="754.7" rx="78.9" ry="158"/>
	<linearGradient id="SVGID_2_" gradientUnits="userSpaceOnUse" x1="239.0309" y1="602.8234" x2="239.0309" y2="1150.2058">
		<stop  offset="0" style="stop-color:#FF931E"/>
		<stop  offset="2.110201e-02" style="stop-color:#FF9D32;stop-opacity:0.9789"/>
		<stop  offset="7.114899e-02" style="stop-color:#FFB15D;stop-opacity:0.9289"/>
		<stop  offset="0.1268" style="stop-color:#FFC484;stop-opacity:0.8732"/>
		<stop  offset="0.1869" style="stop-color:#FFD4A5;stop-opacity:0.8131"/>
		<stop  offset="0.2529" style="stop-color:#FFE1C1;stop-opacity:0.7471"/>
		<stop  offset="0.3266" style="stop-color:#FFECD8;stop-opacity:0.6734"/>
		<stop  offset="0.4115" style="stop-color:#FFF5EA;stop-opacity:0.5885"/>
		<stop  offset="0.5147" style="stop-color:#FFFBF6;stop-opacity:0.4853"/>
		<stop  offset="0.655" style="stop-color:#FFFEFD;stop-opacity:0.345"/>
		<stop  offset="1" style="stop-color:#FFFFFF;stop-opacity:0"/>
	</linearGradient>
	<circle class="st1" cx="239" cy="824.8" r="228.2"/>
	<linearGradient id="SVGID_3_" gradientUnits="userSpaceOnUse" x1="239.0309" y1="600.9371" x2="239.0309" y2="980.0735">
		<stop  offset="0" style="stop-color:#FF931E"/>
		<stop  offset="7.355678e-02" style="stop-color:#FFA33F;stop-opacity:0.9264"/>
		<stop  offset="0.2018" style="stop-color:#FFBB71;stop-opacity:0.7982"/>
		<stop  offset="0.3328" style="stop-color:#FFD09D;stop-opacity:0.6672"/>
		<stop  offset="0.4642" style="stop-color:#FFE1C0;stop-opacity:0.5358"/>
		<stop  offset="0.5961" style="stop-color:#FFEEDC;stop-opacity:0.4039"/>
		<stop  offset="0.7287" style="stop-color:#FFF7EF;stop-opacity:0.2713"/>
		<stop  offset="0.8627" style="stop-color:#FFFDFB;stop-opacity:0.1373"/>
		<stop  offset="1" style="stop-color:#FFFFFF;stop-opacity:0"/>
	</linearGradient>
	<ellipse class="st2" cx="239" cy="754.7" rx="134.7" ry="158"/>
	<path class="st3" d="M128.2,387.3l-13.9-34.1L2.6,512.2c-3.3,4.7-3.5,10.8-0.6,15.7l5.6,9.3l12.2,20.3c3.1,5.2,9.1,7.9,15,6.8
		l153.8-28.5L128.2,387.3z"/>
	<path class="st3" d="M345.1,387.3l13.9-34.1l111.7,158.9c3.3,4.7,3.5,10.8,0.6,15.7l-5.6,9.3l-12.2,20.3c-3.1,5.2-9.1,7.9-15,6.8
		l-153.8-28.5L345.1,387.3z"/>
	<g>
		<path class="st3" d="M290.8,25.6c-13,15.4-32.4,25.1-54.2,25.1s-41.1-9.8-54.2-25.1c-43.3,32-96.8,91.1-96.8,188.1
			c0,8.6,0.2,17.1,0.6,25.6c44.2,25.7,95.6,40.4,150.4,40.4s106.2-14.7,150.4-40.4c0.4-8.5,0.6-17,0.6-25.6
			C387.6,116.7,334.1,57.6,290.8,25.6z"/>
		<g>
			<path class="st4" d="M88.3,270.5c11.2,124.9,55.5,229.8,70,265.3c2.2,5.4,7.5,9,13.4,9h130.1c5.9,0,11.2-3.5,13.4-9
				c14.5-35.5,58.8-140.3,70-265.3c-43.8,25-94.4,39.2-148.4,39.2S132,295.4,88.3,270.5z"/>
			<path class="st3" d="M236.6,279.7c-54.8,0-106.2-14.7-150.4-40.4c0.4,10.5,1.1,20.9,2.1,31.2c43.8,25,94.4,39.2,148.4,39.2
				s104.6-14.3,148.4-39.2c0.9-10.3,1.6-20.7,2.1-31.2C342.9,265,291.5,279.7,236.6,279.7z"/>
		</g>
		<path class="st3" d="M236.6,50.7c21.7,0,41.1-9.8,54.2-25.1c-11.1-8.2-21.6-14.7-30.3-19.5c-14.8-8.2-32.8-8.2-47.7,0
			c-8.7,4.8-19.2,11.2-30.3,19.5C195.5,41,214.9,50.7,236.6,50.7z"/>
	</g>
	<circle class="st5" cx="236.6" cy="362.3" r="13.9"/>
	<path class="st3" d="M297.2,583.7H176.1c-8,0-14.5-6.5-14.5-14.5v-11.1c0-8,6.5-14.5,14.5-14.5h121.1c8,0,14.5,6.5,14.5,14.5v11.1
		C311.6,577.2,305.2,583.7,297.2,583.7z"/>
	<path class="st3" d="M286.4,612.1H185.5c-6.8,0-12.4-5.5-12.4-12.4v-3.6c0-6.8,5.5-12.4,12.4-12.4h100.9c6.8,0,12.4,5.5,12.4,12.4
		v3.6C298.8,606.5,293.2,612.1,286.4,612.1z"/>
	<path class="st5" d="M275.2,450.1c-0.1-21.1-17.3-38.1-38.5-38.1c-21.2,0-38.5,17-38.5,38.1h0v93.7h77.1L275.2,450.1L275.2,450.1z"
		/>
	<path class="st3" d="M208.1,543.7V451l0-0.9c0.1-15.6,12.9-28.2,28.5-28.2s28.5,12.7,28.5,28.2l0,0.9v92.7H208.1z"/>
	<path class="st6" d="M152.7,524.4c-3.6-9-7.5-17.9-10.9-27c-3.8-10.1-7.2-20.3-10.6-30.5c-2.7-8.2-6.1-16.4-7.6-24.9
		c-0.1,0.1-0.2,0.2-0.3,0.3c-22.7,20.3-44.5,41.5-66.2,62.8c-14.3,14-28.6,28.4-43.5,42l6.2,10.3c3.1,5.2,9.1,7.9,15,6.8l126.1-23.4
		C157.3,536,155,530.1,152.7,524.4z"/>
	<path class="st6" d="M418.6,496.3c-10.3-12.9-20.6-25.8-30.8-38.7c-10-12.7-21.2-25.2-29.5-39.1c-0.6,1.2-1.2,2.3-1.8,3.4
		c0,0-0.1,0-0.1,0c2.3-9.3,5.3-18.4,7.7-27.7c2.1-8.5,3.5-17.2,5.5-25.7l-0.2-0.2c6.8-30.4,12.4-63.3,15.5-97.8
		c0.9-10.3,1.6-20.7,2.1-31.2c0.4-8.5,0.6-17,0.6-25.6c0-97-53.5-156.2-96.8-188.1c-11.1-8.2-21.6-14.7-30.3-19.5
		c-14.8-8.2-32.8-8.2-47.7,0c-1.8,1-3.6,2-5.6,3.2c7.8-0.5,15.2,0,23,2.6c11.5,3.9,22.7,10.5,32,18.3c35,29.5,57.3,70.1,69.4,113.8
		c12.6,46,18.7,93.8,18.5,141.4c-0.2,48.1-6.7,96.4-20.9,142.4c-6.5,20.9-14.5,41.7-23,61.8c-8.1,19.3-17.7,38.3-31.6,54.1
		c2.9,1.9,4.3,5.7,5,9c1.8,8.8-1.4,17.7-9.1,21.9c7.8,11,4.9,28.4-4.9,37.4h20.7c6.8,0,12.4-5.5,12.4-12.4v-3.6
		c0-6.8-5.5-12.4-12.4-12.4h10.8c8,0,14.5-6.5,14.5-14.5v-11.1c0-6.2-3.9-11.4-9.3-13.5c3.5-0.2,6.8-1.6,9.3-4l126.8,23.5
		c5.9,1.1,11.9-1.6,15-6.8l6.6-11C446,530,432.2,513.2,418.6,496.3z"/>
	<g class="st7">
		<path class="st4" d="M125.4,317.7c-4.3,0-8.2-3.1-8.9-7.6c-12.2-75.3-3.6-131.7,5.7-165.8c10.2-37.4,23.5-56.9,24-57.7
			c2.8-4.1,8.4-5.1,12.5-2.3c4.1,2.8,5.1,8.4,2.3,12.5c-0.2,0.4-12.4,18.5-21.8,53.2c-8.7,32.2-16.6,85.6-5,157.2
			c0.8,4.9-2.5,9.5-7.4,10.3C126.4,317.6,125.9,317.7,125.4,317.7z"/>
	</g>
	<path class="st8" d="M223.6,572.8h-40.9c-5.3,0-9.5-4.3-9.5-9.5l0,0c0-5.3,4.3-9.5,9.5-9.5h40.9c5.3,0,9.5,4.3,9.5,9.5l0,0
		C233.2,568.5,228.9,572.8,223.6,572.8z"/>
	<path class="st8" d="M228.6,605.2H193c-4.4,0-8-3.6-8-8l0,0c0-4.4,3.6-8,8-8h35.6c4.4,0,8,3.6,8,8l0,0
		C236.6,601.6,233,605.2,228.6,605.2z"/>
	<circle class="st6" cx="250.6" cy="190.2" r="82.4"/>
	<circle class="st5" cx="236.6" cy="165.7" r="74"/>
	<circle class="st9" cx="236.6" cy="165.7" r="48"/>
</g>
</svg>
